<svg xmlns="http://www.w3.org/2000/svg" viewBox="0 0 420 120" role="img" aria-label="RED The Research Journal"><rect width="420" height="120" rx="8" fill="transparent"/><g transform="translate(6 15)"><rect x="4" y="17" width="68" height="48" rx="5" fill="#f6f6f6" stroke="#222" stroke-width="3"/><rect x="10" y="23" width="56" height="34" fill="#fff"/><path d="M18 32c11-5 18-4 25 3v18c-8-6-15-7-25-2V32Zm47 0c-11-5-18-4-25 3v18c8-6 15-7 25-2V32Z" fill="none" stroke="#c71920" stroke-width="3"/><path d="M60 7c10 1 17 7 20 16M60 1c14 1 25 10 29 23" fill="none" stroke="#d71920" stroke-width="4" stroke-linecap="round"/></g><text x="92" y="62" font-family="Georgia,serif" font-size="58" font-weight="700" fill="#e11b22">RED</text><rect x="82" y="74" width="309" height="27" rx="3" fill="#201c1c"/><text x="236" y="94" text-anchor="middle" font-family="Georgia,serif" font-size="17" font-style="italic" fill="white">The Research Journal</text></svg>